<svg xmlns="http://www.w3.org/2000/svg" width="427" height="147" fill="none" viewBox="0 0 427 147"><path fill="url(#paint0_linear_2_4)" fill-rule="evenodd" d="M0 144.531H51.7685C65.4332 144.531 77.2804 141.86 87.31 136.516C97.3396 131.129 105.092 123.421 110.566 113.391C116.041 103.318 118.778 91.2737 118.778 77.2585C118.778 63.2434 116.019 51.221 110.501 41.1914C105.026 31.118 97.2301 23.4097 87.1129 18.0664C77.0396 12.6793 65.0829 9.98579 51.2429 9.98579H0V144.531ZM50.4545 113.523H36.527V40.9943H49.4034C56.411 40.9943 62.3236 42.0673 67.1414 44.2134C72.0029 46.3595 75.6818 50.0604 78.1783 55.316C80.7185 60.5717 81.9886 67.8859 81.9886 77.2585C81.9886 86.6312 80.7404 93.9453 78.244 99.201C75.7913 104.457 72.2 108.158 67.4698 110.304C62.7835 112.45 57.1118 113.523 50.4545 113.523ZM136.204 43.6222V144.531H172.469V43.6222H136.204ZM141.723 28.2493C145.227 31.4903 149.431 33.1108 154.336 33.1108C159.285 33.1108 163.49 31.4903 166.95 28.2493C170.454 25.0083 172.206 21.1103 172.206 16.5554C172.206 12.0005 170.454 8.10251 166.95 4.8615C163.49 1.6205 159.285 0 154.336 0C149.431 0 145.227 1.6205 141.723 4.8615C138.219 8.10251 136.467 12.0005 136.467 16.5554C136.467 21.1103 138.219 25.0083 141.723 28.2493ZM201.982 142.955C206.932 145.057 212.625 146.108 219.063 146.108C223.443 146.108 227.451 145.582 231.086 144.531C234.765 143.48 238.028 141.794 240.874 139.473C243.765 137.151 246.218 134.107 248.232 130.341H249.021V144.531H282.92V75.419C282.92 70.7327 281.847 66.3968 279.701 62.4112C277.599 58.3819 274.533 54.8781 270.503 51.8999C266.474 48.8778 261.591 46.5347 255.853 44.8704C250.116 43.1623 243.634 42.3082 236.407 42.3082C226.378 42.3082 218.012 43.8849 211.311 47.0384C204.61 50.148 199.508 54.3087 196.004 59.5206C192.544 64.6887 190.595 70.3385 190.157 76.4702H223.531C223.969 73.3606 225.261 71.0612 227.407 69.5721C229.597 68.0392 232.422 67.2727 235.882 67.2727C239.035 67.2727 241.619 67.9735 243.634 69.375C245.648 70.7765 246.656 72.7912 246.656 75.419V75.6818C246.656 77.6089 245.889 79.1637 244.356 80.3462C242.823 81.485 240.327 82.3828 236.867 83.0398C233.451 83.6529 228.918 84.1785 223.268 84.6165C218.056 85.0107 213.195 85.8647 208.683 87.1786C204.216 88.4925 200.296 90.3977 196.924 92.8942C193.551 95.3906 190.924 98.6097 189.04 102.551C187.157 106.449 186.215 111.158 186.215 116.676C186.215 123.377 187.617 128.896 190.42 133.232C193.223 137.567 197.077 140.808 201.982 142.955ZM238.641 121.538C236.232 122.676 233.648 123.246 230.889 123.246C227.823 123.246 225.305 122.501 223.334 121.012C221.363 119.523 220.377 117.377 220.377 114.574C220.377 112.822 220.793 111.245 221.626 109.844C222.501 108.398 223.815 107.194 225.567 106.23C227.363 105.223 229.662 104.5 232.465 104.062C233.911 103.844 235.29 103.603 236.604 103.34C237.962 103.077 239.232 102.792 240.415 102.486C241.641 102.179 242.78 101.851 243.831 101.5C244.926 101.15 245.955 100.778 246.919 100.384V108.793C246.919 111.858 246.152 114.464 244.619 116.61C243.086 118.757 241.093 120.399 238.641 121.538ZM360.95 49.1406L338.877 9.98579H297.882L337.825 77.2585L296.568 144.531H338.088L360.95 104.588H362.002L384.864 144.531H426.646L384.864 77.2585L425.07 9.98579H384.338L362.002 49.1406H360.95Z" clip-rule="evenodd"/><defs><linearGradient id="paint0_linear_2_4" x1=".328" x2="426.328" y1="73.531" y2="73.531" gradientUnits="userSpaceOnUse"><stop stop-color="#5FC5FF"/><stop offset=".177" stop-color="#889DFF"/><stop offset=".427" stop-color="#4C84FF"/><stop offset=".703" stop-color="#55E0FF"/><stop offset=".839" stop-color="#4AA2FF"/><stop offset="1" stop-color="#373FFF"/></linearGradient></defs></svg>